<mxfile host="app.diagrams.net" modified="2021-09-25T08:49:42.047Z" agent="5.0 (Windows NT 10.0; Win64; x64) AppleWebKit/537.36 (KHTML, like Gecko) Chrome/94.0.4606.54 Safari/537.36" etag="vaR5cTloUyGZIpkNkF77" version="15.3.1" type="github">
  <diagram id="hajDndzh9RhDvDfDpYwq" name="Page-1">
    <mxGraphModel dx="2377" dy="779" grid="1" gridSize="10" guides="1" tooltips="1" connect="1" arrows="1" fold="1" page="1" pageScale="1" pageWidth="827" pageHeight="1169" math="0" shadow="0">
      <root>
        <mxCell id="0" />
        <mxCell id="1" parent="0" />
        <mxCell id="pvOWlsbIgjqSJZUFIhZs-13" style="rounded=0;orthogonalLoop=1;jettySize=auto;html=1;entryX=0.5;entryY=0;entryDx=0;entryDy=0;" edge="1" parent="1" source="pvOWlsbIgjqSJZUFIhZs-1" target="pvOWlsbIgjqSJZUFIhZs-2">
          <mxGeometry relative="1" as="geometry">
            <mxPoint x="270" y="286" as="targetPoint" />
          </mxGeometry>
        </mxCell>
        <mxCell id="pvOWlsbIgjqSJZUFIhZs-14" style="edgeStyle=none;rounded=0;orthogonalLoop=1;jettySize=auto;html=1;entryX=0.5;entryY=0;entryDx=0;entryDy=0;" edge="1" parent="1" source="pvOWlsbIgjqSJZUFIhZs-1" target="pvOWlsbIgjqSJZUFIhZs-8">
          <mxGeometry relative="1" as="geometry" />
        </mxCell>
        <mxCell id="pvOWlsbIgjqSJZUFIhZs-1" value="92" style="ellipse;whiteSpace=wrap;html=1;aspect=fixed;" vertex="1" parent="1">
          <mxGeometry x="360" y="200" width="40" height="40" as="geometry" />
        </mxCell>
        <mxCell id="pvOWlsbIgjqSJZUFIhZs-17" style="edgeStyle=none;rounded=0;orthogonalLoop=1;jettySize=auto;html=1;entryX=0.5;entryY=0;entryDx=0;entryDy=0;" edge="1" parent="1" source="pvOWlsbIgjqSJZUFIhZs-2" target="pvOWlsbIgjqSJZUFIhZs-5">
          <mxGeometry relative="1" as="geometry" />
        </mxCell>
        <mxCell id="pvOWlsbIgjqSJZUFIhZs-18" style="edgeStyle=none;rounded=0;orthogonalLoop=1;jettySize=auto;html=1;exitX=0;exitY=0.5;exitDx=0;exitDy=0;entryX=0.5;entryY=0;entryDx=0;entryDy=0;" edge="1" parent="1" source="pvOWlsbIgjqSJZUFIhZs-2" target="pvOWlsbIgjqSJZUFIhZs-4">
          <mxGeometry relative="1" as="geometry" />
        </mxCell>
        <mxCell id="pvOWlsbIgjqSJZUFIhZs-2" value="82" style="ellipse;whiteSpace=wrap;html=1;aspect=fixed;" vertex="1" parent="1">
          <mxGeometry x="240" y="280" width="40" height="40" as="geometry" />
        </mxCell>
        <mxCell id="pvOWlsbIgjqSJZUFIhZs-19" style="edgeStyle=none;rounded=0;orthogonalLoop=1;jettySize=auto;html=1;entryX=0.5;entryY=0;entryDx=0;entryDy=0;" edge="1" parent="1" source="pvOWlsbIgjqSJZUFIhZs-4" target="pvOWlsbIgjqSJZUFIhZs-11">
          <mxGeometry relative="1" as="geometry" />
        </mxCell>
        <mxCell id="pvOWlsbIgjqSJZUFIhZs-21" style="edgeStyle=none;rounded=0;orthogonalLoop=1;jettySize=auto;html=1;entryX=0.5;entryY=0;entryDx=0;entryDy=0;" edge="1" parent="1" source="pvOWlsbIgjqSJZUFIhZs-4" target="pvOWlsbIgjqSJZUFIhZs-20">
          <mxGeometry relative="1" as="geometry" />
        </mxCell>
        <mxCell id="pvOWlsbIgjqSJZUFIhZs-4" value="66" style="ellipse;whiteSpace=wrap;html=1;aspect=fixed;" vertex="1" parent="1">
          <mxGeometry x="160" y="360" width="40" height="40" as="geometry" />
        </mxCell>
        <mxCell id="pvOWlsbIgjqSJZUFIhZs-5" value="81" style="ellipse;whiteSpace=wrap;html=1;aspect=fixed;" vertex="1" parent="1">
          <mxGeometry x="320" y="360" width="40" height="40" as="geometry" />
        </mxCell>
        <mxCell id="pvOWlsbIgjqSJZUFIhZs-15" style="edgeStyle=none;rounded=0;orthogonalLoop=1;jettySize=auto;html=1;entryX=0.5;entryY=0;entryDx=0;entryDy=0;" edge="1" parent="1" source="pvOWlsbIgjqSJZUFIhZs-8" target="pvOWlsbIgjqSJZUFIhZs-9">
          <mxGeometry relative="1" as="geometry" />
        </mxCell>
        <mxCell id="pvOWlsbIgjqSJZUFIhZs-16" style="edgeStyle=none;rounded=0;orthogonalLoop=1;jettySize=auto;html=1;exitX=1;exitY=0.5;exitDx=0;exitDy=0;entryX=0.5;entryY=0;entryDx=0;entryDy=0;" edge="1" parent="1" source="pvOWlsbIgjqSJZUFIhZs-8" target="pvOWlsbIgjqSJZUFIhZs-10">
          <mxGeometry relative="1" as="geometry" />
        </mxCell>
        <mxCell id="pvOWlsbIgjqSJZUFIhZs-8" value="62" style="ellipse;whiteSpace=wrap;html=1;aspect=fixed;" vertex="1" parent="1">
          <mxGeometry x="480" y="280" width="40" height="40" as="geometry" />
        </mxCell>
        <mxCell id="pvOWlsbIgjqSJZUFIhZs-9" value="45" style="ellipse;whiteSpace=wrap;html=1;aspect=fixed;" vertex="1" parent="1">
          <mxGeometry x="400" y="360" width="40" height="40" as="geometry" />
        </mxCell>
        <mxCell id="pvOWlsbIgjqSJZUFIhZs-10" value="49" style="ellipse;whiteSpace=wrap;html=1;aspect=fixed;" vertex="1" parent="1">
          <mxGeometry x="560" y="360" width="40" height="40" as="geometry" />
        </mxCell>
        <mxCell id="pvOWlsbIgjqSJZUFIhZs-11" value="40" style="ellipse;whiteSpace=wrap;html=1;aspect=fixed;" vertex="1" parent="1">
          <mxGeometry x="80" y="440" width="40" height="40" as="geometry" />
        </mxCell>
        <mxCell id="pvOWlsbIgjqSJZUFIhZs-20" value="50" style="ellipse;whiteSpace=wrap;html=1;aspect=fixed;" vertex="1" parent="1">
          <mxGeometry x="240" y="440" width="40" height="40" as="geometry" />
        </mxCell>
        <mxCell id="pvOWlsbIgjqSJZUFIhZs-22" style="rounded=0;orthogonalLoop=1;jettySize=auto;html=1;entryX=0.5;entryY=0;entryDx=0;entryDy=0;" edge="1" parent="1" target="pvOWlsbIgjqSJZUFIhZs-27">
          <mxGeometry relative="1" as="geometry">
            <mxPoint x="270" y="646" as="targetPoint" />
            <mxPoint x="362.1114561800016" y="588.9442719099993" as="sourcePoint" />
          </mxGeometry>
        </mxCell>
        <mxCell id="pvOWlsbIgjqSJZUFIhZs-23" style="edgeStyle=none;rounded=0;orthogonalLoop=1;jettySize=auto;html=1;entryX=0.5;entryY=0;entryDx=0;entryDy=0;" edge="1" parent="1" target="pvOWlsbIgjqSJZUFIhZs-34">
          <mxGeometry relative="1" as="geometry">
            <mxPoint x="397.8885438199984" y="588.9442719099993" as="sourcePoint" />
          </mxGeometry>
        </mxCell>
        <mxCell id="pvOWlsbIgjqSJZUFIhZs-25" style="edgeStyle=none;rounded=0;orthogonalLoop=1;jettySize=auto;html=1;entryX=0.5;entryY=0;entryDx=0;entryDy=0;" edge="1" parent="1" source="pvOWlsbIgjqSJZUFIhZs-27" target="pvOWlsbIgjqSJZUFIhZs-31">
          <mxGeometry relative="1" as="geometry" />
        </mxCell>
        <mxCell id="pvOWlsbIgjqSJZUFIhZs-26" style="edgeStyle=none;rounded=0;orthogonalLoop=1;jettySize=auto;html=1;exitX=0;exitY=0.5;exitDx=0;exitDy=0;entryX=0.5;entryY=0;entryDx=0;entryDy=0;" edge="1" parent="1" source="pvOWlsbIgjqSJZUFIhZs-27" target="pvOWlsbIgjqSJZUFIhZs-30">
          <mxGeometry relative="1" as="geometry" />
        </mxCell>
        <mxCell id="pvOWlsbIgjqSJZUFIhZs-27" value="82" style="ellipse;whiteSpace=wrap;html=1;aspect=fixed;" vertex="1" parent="1">
          <mxGeometry x="240" y="640" width="40" height="40" as="geometry" />
        </mxCell>
        <mxCell id="pvOWlsbIgjqSJZUFIhZs-28" style="edgeStyle=none;rounded=0;orthogonalLoop=1;jettySize=auto;html=1;entryX=0.5;entryY=0;entryDx=0;entryDy=0;" edge="1" parent="1" source="pvOWlsbIgjqSJZUFIhZs-30" target="pvOWlsbIgjqSJZUFIhZs-37">
          <mxGeometry relative="1" as="geometry" />
        </mxCell>
        <mxCell id="pvOWlsbIgjqSJZUFIhZs-30" value="66" style="ellipse;whiteSpace=wrap;html=1;aspect=fixed;" vertex="1" parent="1">
          <mxGeometry x="160" y="720" width="40" height="40" as="geometry" />
        </mxCell>
        <mxCell id="pvOWlsbIgjqSJZUFIhZs-31" value="81" style="ellipse;whiteSpace=wrap;html=1;aspect=fixed;" vertex="1" parent="1">
          <mxGeometry x="320" y="720" width="40" height="40" as="geometry" />
        </mxCell>
        <mxCell id="pvOWlsbIgjqSJZUFIhZs-32" style="edgeStyle=none;rounded=0;orthogonalLoop=1;jettySize=auto;html=1;entryX=0.5;entryY=0;entryDx=0;entryDy=0;" edge="1" parent="1" source="pvOWlsbIgjqSJZUFIhZs-34" target="pvOWlsbIgjqSJZUFIhZs-35">
          <mxGeometry relative="1" as="geometry" />
        </mxCell>
        <mxCell id="pvOWlsbIgjqSJZUFIhZs-33" style="edgeStyle=none;rounded=0;orthogonalLoop=1;jettySize=auto;html=1;exitX=1;exitY=0.5;exitDx=0;exitDy=0;entryX=0.5;entryY=0;entryDx=0;entryDy=0;" edge="1" parent="1" source="pvOWlsbIgjqSJZUFIhZs-34" target="pvOWlsbIgjqSJZUFIhZs-36">
          <mxGeometry relative="1" as="geometry" />
        </mxCell>
        <mxCell id="pvOWlsbIgjqSJZUFIhZs-34" value="62" style="ellipse;whiteSpace=wrap;html=1;aspect=fixed;" vertex="1" parent="1">
          <mxGeometry x="480" y="640" width="40" height="40" as="geometry" />
        </mxCell>
        <mxCell id="pvOWlsbIgjqSJZUFIhZs-35" value="45" style="ellipse;whiteSpace=wrap;html=1;aspect=fixed;" vertex="1" parent="1">
          <mxGeometry x="400" y="720" width="40" height="40" as="geometry" />
        </mxCell>
        <mxCell id="pvOWlsbIgjqSJZUFIhZs-36" value="49" style="ellipse;whiteSpace=wrap;html=1;aspect=fixed;" vertex="1" parent="1">
          <mxGeometry x="560" y="720" width="40" height="40" as="geometry" />
        </mxCell>
        <mxCell id="pvOWlsbIgjqSJZUFIhZs-37" value="40" style="ellipse;whiteSpace=wrap;html=1;aspect=fixed;" vertex="1" parent="1">
          <mxGeometry x="80" y="800" width="40" height="40" as="geometry" />
        </mxCell>
        <mxCell id="pvOWlsbIgjqSJZUFIhZs-38" value="50" style="ellipse;whiteSpace=wrap;html=1;aspect=fixed;fillColor=#FF0000;" vertex="1" parent="1">
          <mxGeometry x="360" y="560" width="40" height="40" as="geometry" />
        </mxCell>
        <mxCell id="pvOWlsbIgjqSJZUFIhZs-39" style="rounded=0;orthogonalLoop=1;jettySize=auto;html=1;entryX=0.5;entryY=0;entryDx=0;entryDy=0;" edge="1" parent="1" target="pvOWlsbIgjqSJZUFIhZs-43">
          <mxGeometry relative="1" as="geometry">
            <mxPoint x="270" y="986" as="targetPoint" />
            <mxPoint x="362.1114561800016" y="928.9442719099993" as="sourcePoint" />
          </mxGeometry>
        </mxCell>
        <mxCell id="pvOWlsbIgjqSJZUFIhZs-40" style="edgeStyle=none;rounded=0;orthogonalLoop=1;jettySize=auto;html=1;entryX=0.5;entryY=0;entryDx=0;entryDy=0;" edge="1" parent="1" target="pvOWlsbIgjqSJZUFIhZs-49">
          <mxGeometry relative="1" as="geometry">
            <mxPoint x="397.8885438199984" y="928.9442719099993" as="sourcePoint" />
          </mxGeometry>
        </mxCell>
        <mxCell id="pvOWlsbIgjqSJZUFIhZs-41" style="edgeStyle=none;rounded=0;orthogonalLoop=1;jettySize=auto;html=1;entryX=0.5;entryY=0;entryDx=0;entryDy=0;" edge="1" parent="1" source="pvOWlsbIgjqSJZUFIhZs-43" target="pvOWlsbIgjqSJZUFIhZs-46">
          <mxGeometry relative="1" as="geometry" />
        </mxCell>
        <mxCell id="pvOWlsbIgjqSJZUFIhZs-42" style="edgeStyle=none;rounded=0;orthogonalLoop=1;jettySize=auto;html=1;exitX=0;exitY=0.5;exitDx=0;exitDy=0;entryX=0.5;entryY=0;entryDx=0;entryDy=0;" edge="1" parent="1" source="pvOWlsbIgjqSJZUFIhZs-43" target="pvOWlsbIgjqSJZUFIhZs-45">
          <mxGeometry relative="1" as="geometry" />
        </mxCell>
        <mxCell id="pvOWlsbIgjqSJZUFIhZs-43" value="50" style="ellipse;whiteSpace=wrap;html=1;aspect=fixed;fillColor=#FF0000;" vertex="1" parent="1">
          <mxGeometry x="240" y="980" width="40" height="40" as="geometry" />
        </mxCell>
        <mxCell id="pvOWlsbIgjqSJZUFIhZs-44" style="edgeStyle=none;rounded=0;orthogonalLoop=1;jettySize=auto;html=1;entryX=0.5;entryY=0;entryDx=0;entryDy=0;" edge="1" parent="1" source="pvOWlsbIgjqSJZUFIhZs-45" target="pvOWlsbIgjqSJZUFIhZs-52">
          <mxGeometry relative="1" as="geometry" />
        </mxCell>
        <mxCell id="pvOWlsbIgjqSJZUFIhZs-45" value="66" style="ellipse;whiteSpace=wrap;html=1;aspect=fixed;" vertex="1" parent="1">
          <mxGeometry x="160" y="1060" width="40" height="40" as="geometry" />
        </mxCell>
        <mxCell id="pvOWlsbIgjqSJZUFIhZs-46" value="81" style="ellipse;whiteSpace=wrap;html=1;aspect=fixed;" vertex="1" parent="1">
          <mxGeometry x="320" y="1060" width="40" height="40" as="geometry" />
        </mxCell>
        <mxCell id="pvOWlsbIgjqSJZUFIhZs-47" style="edgeStyle=none;rounded=0;orthogonalLoop=1;jettySize=auto;html=1;entryX=0.5;entryY=0;entryDx=0;entryDy=0;" edge="1" parent="1" source="pvOWlsbIgjqSJZUFIhZs-49" target="pvOWlsbIgjqSJZUFIhZs-50">
          <mxGeometry relative="1" as="geometry" />
        </mxCell>
        <mxCell id="pvOWlsbIgjqSJZUFIhZs-48" style="edgeStyle=none;rounded=0;orthogonalLoop=1;jettySize=auto;html=1;exitX=1;exitY=0.5;exitDx=0;exitDy=0;entryX=0.5;entryY=0;entryDx=0;entryDy=0;" edge="1" parent="1" source="pvOWlsbIgjqSJZUFIhZs-49" target="pvOWlsbIgjqSJZUFIhZs-51">
          <mxGeometry relative="1" as="geometry" />
        </mxCell>
        <mxCell id="pvOWlsbIgjqSJZUFIhZs-49" value="62" style="ellipse;whiteSpace=wrap;html=1;aspect=fixed;" vertex="1" parent="1">
          <mxGeometry x="480" y="980" width="40" height="40" as="geometry" />
        </mxCell>
        <mxCell id="pvOWlsbIgjqSJZUFIhZs-50" value="45" style="ellipse;whiteSpace=wrap;html=1;aspect=fixed;" vertex="1" parent="1">
          <mxGeometry x="400" y="1060" width="40" height="40" as="geometry" />
        </mxCell>
        <mxCell id="pvOWlsbIgjqSJZUFIhZs-51" value="49" style="ellipse;whiteSpace=wrap;html=1;aspect=fixed;" vertex="1" parent="1">
          <mxGeometry x="560" y="1060" width="40" height="40" as="geometry" />
        </mxCell>
        <mxCell id="pvOWlsbIgjqSJZUFIhZs-52" value="40" style="ellipse;whiteSpace=wrap;html=1;aspect=fixed;" vertex="1" parent="1">
          <mxGeometry x="80" y="1140" width="40" height="40" as="geometry" />
        </mxCell>
        <mxCell id="pvOWlsbIgjqSJZUFIhZs-137" style="edgeStyle=orthogonalEdgeStyle;rounded=0;orthogonalLoop=1;jettySize=auto;html=1;dashed=1;opacity=30;curved=1;entryX=0.25;entryY=-0.045;entryDx=0;entryDy=0;entryPerimeter=0;startArrow=classicThin;startFill=1;endArrow=classicThin;endFill=1;exitX=0.23;exitY=-0.005;exitDx=0;exitDy=0;exitPerimeter=0;" edge="1" parent="1" source="pvOWlsbIgjqSJZUFIhZs-53" target="pvOWlsbIgjqSJZUFIhZs-43">
          <mxGeometry relative="1" as="geometry">
            <mxPoint x="250" y="970" as="targetPoint" />
            <Array as="points">
              <mxPoint x="250" y="900" />
            </Array>
          </mxGeometry>
        </mxCell>
        <mxCell id="pvOWlsbIgjqSJZUFIhZs-53" value="82" style="ellipse;whiteSpace=wrap;html=1;aspect=fixed;fillColor=#FF0000;" vertex="1" parent="1">
          <mxGeometry x="360" y="900" width="40" height="40" as="geometry" />
        </mxCell>
        <mxCell id="pvOWlsbIgjqSJZUFIhZs-54" style="rounded=0;orthogonalLoop=1;jettySize=auto;html=1;entryX=0.5;entryY=0;entryDx=0;entryDy=0;" edge="1" parent="1" target="pvOWlsbIgjqSJZUFIhZs-58">
          <mxGeometry relative="1" as="geometry">
            <mxPoint x="270" y="1286" as="targetPoint" />
            <mxPoint x="362.1114561800016" y="1228.9442719099993" as="sourcePoint" />
          </mxGeometry>
        </mxCell>
        <mxCell id="pvOWlsbIgjqSJZUFIhZs-55" style="edgeStyle=none;rounded=0;orthogonalLoop=1;jettySize=auto;html=1;entryX=0.5;entryY=0;entryDx=0;entryDy=0;" edge="1" parent="1" target="pvOWlsbIgjqSJZUFIhZs-64">
          <mxGeometry relative="1" as="geometry">
            <mxPoint x="397.8885438199984" y="1228.9442719099993" as="sourcePoint" />
          </mxGeometry>
        </mxCell>
        <mxCell id="pvOWlsbIgjqSJZUFIhZs-56" style="edgeStyle=none;rounded=0;orthogonalLoop=1;jettySize=auto;html=1;entryX=0.5;entryY=0;entryDx=0;entryDy=0;" edge="1" parent="1" source="pvOWlsbIgjqSJZUFIhZs-58" target="pvOWlsbIgjqSJZUFIhZs-61">
          <mxGeometry relative="1" as="geometry" />
        </mxCell>
        <mxCell id="pvOWlsbIgjqSJZUFIhZs-57" style="edgeStyle=none;rounded=0;orthogonalLoop=1;jettySize=auto;html=1;exitX=0;exitY=0.5;exitDx=0;exitDy=0;entryX=0.5;entryY=0;entryDx=0;entryDy=0;" edge="1" parent="1" source="pvOWlsbIgjqSJZUFIhZs-58" target="pvOWlsbIgjqSJZUFIhZs-60">
          <mxGeometry relative="1" as="geometry" />
        </mxCell>
        <mxCell id="pvOWlsbIgjqSJZUFIhZs-138" style="edgeStyle=orthogonalEdgeStyle;curved=1;rounded=0;orthogonalLoop=1;jettySize=auto;html=1;entryX=1;entryY=0;entryDx=0;entryDy=0;dashed=1;startArrow=classicThin;startFill=1;endArrow=classicThin;endFill=1;opacity=30;" edge="1" parent="1" source="pvOWlsbIgjqSJZUFIhZs-58" target="pvOWlsbIgjqSJZUFIhZs-61">
          <mxGeometry relative="1" as="geometry" />
        </mxCell>
        <mxCell id="pvOWlsbIgjqSJZUFIhZs-58" value="81" style="ellipse;whiteSpace=wrap;html=1;aspect=fixed;fillColor=#FF0000;" vertex="1" parent="1">
          <mxGeometry x="240" y="1280" width="40" height="40" as="geometry" />
        </mxCell>
        <mxCell id="pvOWlsbIgjqSJZUFIhZs-59" style="edgeStyle=none;rounded=0;orthogonalLoop=1;jettySize=auto;html=1;entryX=0.5;entryY=0;entryDx=0;entryDy=0;" edge="1" parent="1" source="pvOWlsbIgjqSJZUFIhZs-60" target="pvOWlsbIgjqSJZUFIhZs-67">
          <mxGeometry relative="1" as="geometry" />
        </mxCell>
        <mxCell id="pvOWlsbIgjqSJZUFIhZs-60" value="66" style="ellipse;whiteSpace=wrap;html=1;aspect=fixed;" vertex="1" parent="1">
          <mxGeometry x="160" y="1360" width="40" height="40" as="geometry" />
        </mxCell>
        <mxCell id="pvOWlsbIgjqSJZUFIhZs-61" value="50" style="ellipse;whiteSpace=wrap;html=1;aspect=fixed;fillColor=#FF0000;" vertex="1" parent="1">
          <mxGeometry x="320" y="1360" width="40" height="40" as="geometry" />
        </mxCell>
        <mxCell id="pvOWlsbIgjqSJZUFIhZs-62" style="edgeStyle=none;rounded=0;orthogonalLoop=1;jettySize=auto;html=1;entryX=0.5;entryY=0;entryDx=0;entryDy=0;" edge="1" parent="1" source="pvOWlsbIgjqSJZUFIhZs-64" target="pvOWlsbIgjqSJZUFIhZs-65">
          <mxGeometry relative="1" as="geometry" />
        </mxCell>
        <mxCell id="pvOWlsbIgjqSJZUFIhZs-63" style="edgeStyle=none;rounded=0;orthogonalLoop=1;jettySize=auto;html=1;exitX=1;exitY=0.5;exitDx=0;exitDy=0;entryX=0.5;entryY=0;entryDx=0;entryDy=0;" edge="1" parent="1" source="pvOWlsbIgjqSJZUFIhZs-64" target="pvOWlsbIgjqSJZUFIhZs-66">
          <mxGeometry relative="1" as="geometry" />
        </mxCell>
        <mxCell id="pvOWlsbIgjqSJZUFIhZs-64" value="62" style="ellipse;whiteSpace=wrap;html=1;aspect=fixed;" vertex="1" parent="1">
          <mxGeometry x="480" y="1280" width="40" height="40" as="geometry" />
        </mxCell>
        <mxCell id="pvOWlsbIgjqSJZUFIhZs-65" value="45" style="ellipse;whiteSpace=wrap;html=1;aspect=fixed;" vertex="1" parent="1">
          <mxGeometry x="400" y="1360" width="40" height="40" as="geometry" />
        </mxCell>
        <mxCell id="pvOWlsbIgjqSJZUFIhZs-66" value="49" style="ellipse;whiteSpace=wrap;html=1;aspect=fixed;" vertex="1" parent="1">
          <mxGeometry x="560" y="1360" width="40" height="40" as="geometry" />
        </mxCell>
        <mxCell id="pvOWlsbIgjqSJZUFIhZs-67" value="40" style="ellipse;whiteSpace=wrap;html=1;aspect=fixed;" vertex="1" parent="1">
          <mxGeometry x="80" y="1440" width="40" height="40" as="geometry" />
        </mxCell>
        <mxCell id="pvOWlsbIgjqSJZUFIhZs-68" value="82" style="ellipse;whiteSpace=wrap;html=1;aspect=fixed;" vertex="1" parent="1">
          <mxGeometry x="360" y="1200" width="40" height="40" as="geometry" />
        </mxCell>
        <mxCell id="pvOWlsbIgjqSJZUFIhZs-100" style="rounded=0;orthogonalLoop=1;jettySize=auto;html=1;entryX=0.5;entryY=0;entryDx=0;entryDy=0;" edge="1" parent="1" source="pvOWlsbIgjqSJZUFIhZs-102" target="pvOWlsbIgjqSJZUFIhZs-105">
          <mxGeometry relative="1" as="geometry">
            <mxPoint x="1010" y="286" as="targetPoint" />
          </mxGeometry>
        </mxCell>
        <mxCell id="pvOWlsbIgjqSJZUFIhZs-101" style="edgeStyle=none;rounded=0;orthogonalLoop=1;jettySize=auto;html=1;entryX=0.5;entryY=0;entryDx=0;entryDy=0;" edge="1" parent="1" source="pvOWlsbIgjqSJZUFIhZs-102" target="pvOWlsbIgjqSJZUFIhZs-112">
          <mxGeometry relative="1" as="geometry" />
        </mxCell>
        <mxCell id="pvOWlsbIgjqSJZUFIhZs-102" value="92" style="ellipse;whiteSpace=wrap;html=1;aspect=fixed;" vertex="1" parent="1">
          <mxGeometry x="1100" y="200" width="40" height="40" as="geometry" />
        </mxCell>
        <mxCell id="pvOWlsbIgjqSJZUFIhZs-103" style="edgeStyle=none;rounded=0;orthogonalLoop=1;jettySize=auto;html=1;entryX=0.5;entryY=0;entryDx=0;entryDy=0;" edge="1" parent="1" source="pvOWlsbIgjqSJZUFIhZs-105" target="pvOWlsbIgjqSJZUFIhZs-109">
          <mxGeometry relative="1" as="geometry" />
        </mxCell>
        <mxCell id="pvOWlsbIgjqSJZUFIhZs-104" style="edgeStyle=none;rounded=0;orthogonalLoop=1;jettySize=auto;html=1;exitX=0;exitY=0.5;exitDx=0;exitDy=0;entryX=0.5;entryY=0;entryDx=0;entryDy=0;" edge="1" parent="1" source="pvOWlsbIgjqSJZUFIhZs-105" target="pvOWlsbIgjqSJZUFIhZs-108">
          <mxGeometry relative="1" as="geometry" />
        </mxCell>
        <mxCell id="pvOWlsbIgjqSJZUFIhZs-105" value="82" style="ellipse;whiteSpace=wrap;html=1;aspect=fixed;" vertex="1" parent="1">
          <mxGeometry x="980" y="280" width="40" height="40" as="geometry" />
        </mxCell>
        <mxCell id="pvOWlsbIgjqSJZUFIhZs-106" style="edgeStyle=none;rounded=0;orthogonalLoop=1;jettySize=auto;html=1;entryX=0.5;entryY=0;entryDx=0;entryDy=0;" edge="1" parent="1" source="pvOWlsbIgjqSJZUFIhZs-108" target="pvOWlsbIgjqSJZUFIhZs-115">
          <mxGeometry relative="1" as="geometry" />
        </mxCell>
        <mxCell id="pvOWlsbIgjqSJZUFIhZs-107" style="edgeStyle=none;rounded=0;orthogonalLoop=1;jettySize=auto;html=1;entryX=0.5;entryY=0;entryDx=0;entryDy=0;" edge="1" parent="1" source="pvOWlsbIgjqSJZUFIhZs-108" target="pvOWlsbIgjqSJZUFIhZs-116">
          <mxGeometry relative="1" as="geometry" />
        </mxCell>
        <mxCell id="pvOWlsbIgjqSJZUFIhZs-108" value="66" style="ellipse;whiteSpace=wrap;html=1;aspect=fixed;" vertex="1" parent="1">
          <mxGeometry x="900" y="360" width="40" height="40" as="geometry" />
        </mxCell>
        <mxCell id="pvOWlsbIgjqSJZUFIhZs-109" value="81" style="ellipse;whiteSpace=wrap;html=1;aspect=fixed;" vertex="1" parent="1">
          <mxGeometry x="1060" y="360" width="40" height="40" as="geometry" />
        </mxCell>
        <mxCell id="pvOWlsbIgjqSJZUFIhZs-110" style="edgeStyle=none;rounded=0;orthogonalLoop=1;jettySize=auto;html=1;entryX=0.5;entryY=0;entryDx=0;entryDy=0;" edge="1" parent="1" source="pvOWlsbIgjqSJZUFIhZs-112" target="pvOWlsbIgjqSJZUFIhZs-113">
          <mxGeometry relative="1" as="geometry" />
        </mxCell>
        <mxCell id="pvOWlsbIgjqSJZUFIhZs-111" style="edgeStyle=none;rounded=0;orthogonalLoop=1;jettySize=auto;html=1;exitX=1;exitY=0.5;exitDx=0;exitDy=0;entryX=0.5;entryY=0;entryDx=0;entryDy=0;" edge="1" parent="1" source="pvOWlsbIgjqSJZUFIhZs-112" target="pvOWlsbIgjqSJZUFIhZs-114">
          <mxGeometry relative="1" as="geometry" />
        </mxCell>
        <mxCell id="pvOWlsbIgjqSJZUFIhZs-112" value="62" style="ellipse;whiteSpace=wrap;html=1;aspect=fixed;" vertex="1" parent="1">
          <mxGeometry x="1220" y="280" width="40" height="40" as="geometry" />
        </mxCell>
        <mxCell id="pvOWlsbIgjqSJZUFIhZs-113" value="45" style="ellipse;whiteSpace=wrap;html=1;aspect=fixed;" vertex="1" parent="1">
          <mxGeometry x="1140" y="360" width="40" height="40" as="geometry" />
        </mxCell>
        <mxCell id="pvOWlsbIgjqSJZUFIhZs-114" value="49" style="ellipse;whiteSpace=wrap;html=1;aspect=fixed;" vertex="1" parent="1">
          <mxGeometry x="1300" y="360" width="40" height="40" as="geometry" />
        </mxCell>
        <mxCell id="pvOWlsbIgjqSJZUFIhZs-115" value="40" style="ellipse;whiteSpace=wrap;html=1;aspect=fixed;" vertex="1" parent="1">
          <mxGeometry x="820" y="440" width="40" height="40" as="geometry" />
        </mxCell>
        <mxCell id="pvOWlsbIgjqSJZUFIhZs-116" value="50" style="ellipse;whiteSpace=wrap;html=1;aspect=fixed;" vertex="1" parent="1">
          <mxGeometry x="980" y="440" width="40" height="40" as="geometry" />
        </mxCell>
        <mxCell id="pvOWlsbIgjqSJZUFIhZs-117" style="rounded=0;orthogonalLoop=1;jettySize=auto;html=1;entryX=0.5;entryY=0;entryDx=0;entryDy=0;" edge="1" parent="1" source="pvOWlsbIgjqSJZUFIhZs-119" target="pvOWlsbIgjqSJZUFIhZs-122">
          <mxGeometry relative="1" as="geometry">
            <mxPoint x="1050" y="646" as="targetPoint" />
          </mxGeometry>
        </mxCell>
        <mxCell id="pvOWlsbIgjqSJZUFIhZs-118" style="edgeStyle=none;rounded=0;orthogonalLoop=1;jettySize=auto;html=1;entryX=0.5;entryY=0;entryDx=0;entryDy=0;" edge="1" parent="1" source="pvOWlsbIgjqSJZUFIhZs-119" target="pvOWlsbIgjqSJZUFIhZs-129">
          <mxGeometry relative="1" as="geometry" />
        </mxCell>
        <mxCell id="pvOWlsbIgjqSJZUFIhZs-183" style="rounded=0;orthogonalLoop=1;jettySize=auto;html=1;entryX=1;entryY=0;entryDx=0;entryDy=0;dashed=1;startArrow=none;startFill=0;endArrow=classicThin;endFill=1;opacity=30;" edge="1" parent="1" source="pvOWlsbIgjqSJZUFIhZs-119" target="pvOWlsbIgjqSJZUFIhZs-133">
          <mxGeometry relative="1" as="geometry" />
        </mxCell>
        <mxCell id="pvOWlsbIgjqSJZUFIhZs-119" value="92" style="ellipse;whiteSpace=wrap;html=1;aspect=fixed;fillColor=#FF0000;" vertex="1" parent="1">
          <mxGeometry x="1140" y="560" width="40" height="40" as="geometry" />
        </mxCell>
        <mxCell id="pvOWlsbIgjqSJZUFIhZs-120" style="edgeStyle=none;rounded=0;orthogonalLoop=1;jettySize=auto;html=1;entryX=0.5;entryY=0;entryDx=0;entryDy=0;" edge="1" parent="1" source="pvOWlsbIgjqSJZUFIhZs-122" target="pvOWlsbIgjqSJZUFIhZs-126">
          <mxGeometry relative="1" as="geometry" />
        </mxCell>
        <mxCell id="pvOWlsbIgjqSJZUFIhZs-121" style="edgeStyle=none;rounded=0;orthogonalLoop=1;jettySize=auto;html=1;exitX=0;exitY=0.5;exitDx=0;exitDy=0;entryX=0.5;entryY=0;entryDx=0;entryDy=0;" edge="1" parent="1" source="pvOWlsbIgjqSJZUFIhZs-122" target="pvOWlsbIgjqSJZUFIhZs-125">
          <mxGeometry relative="1" as="geometry" />
        </mxCell>
        <mxCell id="pvOWlsbIgjqSJZUFIhZs-122" value="82" style="ellipse;whiteSpace=wrap;html=1;aspect=fixed;" vertex="1" parent="1">
          <mxGeometry x="1020" y="640" width="40" height="40" as="geometry" />
        </mxCell>
        <mxCell id="pvOWlsbIgjqSJZUFIhZs-123" style="edgeStyle=none;rounded=0;orthogonalLoop=1;jettySize=auto;html=1;entryX=0.5;entryY=0;entryDx=0;entryDy=0;" edge="1" parent="1" source="pvOWlsbIgjqSJZUFIhZs-125" target="pvOWlsbIgjqSJZUFIhZs-132">
          <mxGeometry relative="1" as="geometry" />
        </mxCell>
        <mxCell id="pvOWlsbIgjqSJZUFIhZs-124" style="edgeStyle=none;rounded=0;orthogonalLoop=1;jettySize=auto;html=1;entryX=0.5;entryY=0;entryDx=0;entryDy=0;" edge="1" parent="1" source="pvOWlsbIgjqSJZUFIhZs-125" target="pvOWlsbIgjqSJZUFIhZs-133">
          <mxGeometry relative="1" as="geometry" />
        </mxCell>
        <mxCell id="pvOWlsbIgjqSJZUFIhZs-125" value="66" style="ellipse;whiteSpace=wrap;html=1;aspect=fixed;" vertex="1" parent="1">
          <mxGeometry x="940" y="720" width="40" height="40" as="geometry" />
        </mxCell>
        <mxCell id="pvOWlsbIgjqSJZUFIhZs-126" value="81" style="ellipse;whiteSpace=wrap;html=1;aspect=fixed;" vertex="1" parent="1">
          <mxGeometry x="1100" y="720" width="40" height="40" as="geometry" />
        </mxCell>
        <mxCell id="pvOWlsbIgjqSJZUFIhZs-127" style="edgeStyle=none;rounded=0;orthogonalLoop=1;jettySize=auto;html=1;entryX=0.5;entryY=0;entryDx=0;entryDy=0;" edge="1" parent="1" source="pvOWlsbIgjqSJZUFIhZs-129" target="pvOWlsbIgjqSJZUFIhZs-130">
          <mxGeometry relative="1" as="geometry" />
        </mxCell>
        <mxCell id="pvOWlsbIgjqSJZUFIhZs-128" style="edgeStyle=none;rounded=0;orthogonalLoop=1;jettySize=auto;html=1;exitX=1;exitY=0.5;exitDx=0;exitDy=0;entryX=0.5;entryY=0;entryDx=0;entryDy=0;" edge="1" parent="1" source="pvOWlsbIgjqSJZUFIhZs-129" target="pvOWlsbIgjqSJZUFIhZs-131">
          <mxGeometry relative="1" as="geometry" />
        </mxCell>
        <mxCell id="pvOWlsbIgjqSJZUFIhZs-129" value="62" style="ellipse;whiteSpace=wrap;html=1;aspect=fixed;" vertex="1" parent="1">
          <mxGeometry x="1260" y="640" width="40" height="40" as="geometry" />
        </mxCell>
        <mxCell id="pvOWlsbIgjqSJZUFIhZs-130" value="45" style="ellipse;whiteSpace=wrap;html=1;aspect=fixed;" vertex="1" parent="1">
          <mxGeometry x="1180" y="720" width="40" height="40" as="geometry" />
        </mxCell>
        <mxCell id="pvOWlsbIgjqSJZUFIhZs-131" value="49" style="ellipse;whiteSpace=wrap;html=1;aspect=fixed;" vertex="1" parent="1">
          <mxGeometry x="1340" y="720" width="40" height="40" as="geometry" />
        </mxCell>
        <mxCell id="pvOWlsbIgjqSJZUFIhZs-132" value="40" style="ellipse;whiteSpace=wrap;html=1;aspect=fixed;" vertex="1" parent="1">
          <mxGeometry x="860" y="800" width="40" height="40" as="geometry" />
        </mxCell>
        <mxCell id="pvOWlsbIgjqSJZUFIhZs-133" value="92" style="ellipse;whiteSpace=wrap;html=1;aspect=fixed;fillColor=#FF0000;" vertex="1" parent="1">
          <mxGeometry x="1020" y="800" width="40" height="40" as="geometry" />
        </mxCell>
        <mxCell id="pvOWlsbIgjqSJZUFIhZs-136" style="edgeStyle=none;rounded=0;orthogonalLoop=1;jettySize=auto;html=1;entryX=0.5;entryY=1;entryDx=0;entryDy=0;dashed=1;opacity=30;" edge="1" parent="1" source="pvOWlsbIgjqSJZUFIhZs-135" target="pvOWlsbIgjqSJZUFIhZs-38">
          <mxGeometry relative="1" as="geometry">
            <mxPoint x="280" y="750" as="targetPoint" />
          </mxGeometry>
        </mxCell>
        <mxCell id="pvOWlsbIgjqSJZUFIhZs-135" value="" style="ellipse;whiteSpace=wrap;html=1;aspect=fixed;opacity=30;" vertex="1" parent="1">
          <mxGeometry x="240" y="800" width="40" height="40" as="geometry" />
        </mxCell>
        <mxCell id="pvOWlsbIgjqSJZUFIhZs-142" style="rounded=0;orthogonalLoop=1;jettySize=auto;html=1;entryX=0.5;entryY=0;entryDx=0;entryDy=0;" edge="1" parent="1" source="pvOWlsbIgjqSJZUFIhZs-144" target="pvOWlsbIgjqSJZUFIhZs-147">
          <mxGeometry relative="1" as="geometry">
            <mxPoint x="1040" y="986" as="targetPoint" />
          </mxGeometry>
        </mxCell>
        <mxCell id="pvOWlsbIgjqSJZUFIhZs-143" style="edgeStyle=none;rounded=0;orthogonalLoop=1;jettySize=auto;html=1;entryX=0.5;entryY=0;entryDx=0;entryDy=0;" edge="1" parent="1" source="pvOWlsbIgjqSJZUFIhZs-144" target="pvOWlsbIgjqSJZUFIhZs-155">
          <mxGeometry relative="1" as="geometry" />
        </mxCell>
        <mxCell id="pvOWlsbIgjqSJZUFIhZs-144" value="82" style="ellipse;whiteSpace=wrap;html=1;aspect=fixed;fillColor=#FF0000;" vertex="1" parent="1">
          <mxGeometry x="1130" y="900" width="40" height="40" as="geometry" />
        </mxCell>
        <mxCell id="pvOWlsbIgjqSJZUFIhZs-145" style="edgeStyle=none;rounded=0;orthogonalLoop=1;jettySize=auto;html=1;entryX=0.5;entryY=0;entryDx=0;entryDy=0;" edge="1" parent="1" source="pvOWlsbIgjqSJZUFIhZs-147" target="pvOWlsbIgjqSJZUFIhZs-151">
          <mxGeometry relative="1" as="geometry" />
        </mxCell>
        <mxCell id="pvOWlsbIgjqSJZUFIhZs-146" style="edgeStyle=none;rounded=0;orthogonalLoop=1;jettySize=auto;html=1;exitX=0;exitY=0.5;exitDx=0;exitDy=0;entryX=0.5;entryY=0;entryDx=0;entryDy=0;" edge="1" parent="1" source="pvOWlsbIgjqSJZUFIhZs-147" target="pvOWlsbIgjqSJZUFIhZs-150">
          <mxGeometry relative="1" as="geometry" />
        </mxCell>
        <mxCell id="pvOWlsbIgjqSJZUFIhZs-224" style="edgeStyle=orthogonalEdgeStyle;curved=1;rounded=0;orthogonalLoop=1;jettySize=auto;html=1;entryX=0.5;entryY=0;entryDx=0;entryDy=0;dashed=1;startArrow=none;startFill=0;endArrow=classicThin;endFill=1;opacity=30;" edge="1" parent="1" source="pvOWlsbIgjqSJZUFIhZs-147" target="pvOWlsbIgjqSJZUFIhZs-144">
          <mxGeometry relative="1" as="geometry">
            <Array as="points">
              <mxPoint x="1020" y="880" />
              <mxPoint x="1150" y="880" />
            </Array>
          </mxGeometry>
        </mxCell>
        <mxCell id="pvOWlsbIgjqSJZUFIhZs-147" value="82" style="ellipse;whiteSpace=wrap;html=1;aspect=fixed;fillColor=#FF0000;" vertex="1" parent="1">
          <mxGeometry x="1010" y="980" width="40" height="40" as="geometry" />
        </mxCell>
        <mxCell id="pvOWlsbIgjqSJZUFIhZs-148" style="edgeStyle=none;rounded=0;orthogonalLoop=1;jettySize=auto;html=1;entryX=0.5;entryY=0;entryDx=0;entryDy=0;" edge="1" parent="1" source="pvOWlsbIgjqSJZUFIhZs-150" target="pvOWlsbIgjqSJZUFIhZs-158">
          <mxGeometry relative="1" as="geometry" />
        </mxCell>
        <mxCell id="pvOWlsbIgjqSJZUFIhZs-149" style="edgeStyle=none;rounded=0;orthogonalLoop=1;jettySize=auto;html=1;entryX=0.5;entryY=0;entryDx=0;entryDy=0;" edge="1" parent="1" source="pvOWlsbIgjqSJZUFIhZs-150" target="pvOWlsbIgjqSJZUFIhZs-159">
          <mxGeometry relative="1" as="geometry" />
        </mxCell>
        <mxCell id="pvOWlsbIgjqSJZUFIhZs-150" value="66" style="ellipse;whiteSpace=wrap;html=1;aspect=fixed;" vertex="1" parent="1">
          <mxGeometry x="930" y="1060" width="40" height="40" as="geometry" />
        </mxCell>
        <mxCell id="pvOWlsbIgjqSJZUFIhZs-151" value="81" style="ellipse;whiteSpace=wrap;html=1;aspect=fixed;" vertex="1" parent="1">
          <mxGeometry x="1090" y="1060" width="40" height="40" as="geometry" />
        </mxCell>
        <mxCell id="pvOWlsbIgjqSJZUFIhZs-152" style="edgeStyle=none;rounded=0;orthogonalLoop=1;jettySize=auto;html=1;entryX=0.5;entryY=0;entryDx=0;entryDy=0;" edge="1" parent="1" source="pvOWlsbIgjqSJZUFIhZs-155" target="pvOWlsbIgjqSJZUFIhZs-156">
          <mxGeometry relative="1" as="geometry" />
        </mxCell>
        <mxCell id="pvOWlsbIgjqSJZUFIhZs-153" style="edgeStyle=none;rounded=0;orthogonalLoop=1;jettySize=auto;html=1;exitX=1;exitY=0.5;exitDx=0;exitDy=0;entryX=0.5;entryY=0;entryDx=0;entryDy=0;" edge="1" parent="1" source="pvOWlsbIgjqSJZUFIhZs-155" target="pvOWlsbIgjqSJZUFIhZs-157">
          <mxGeometry relative="1" as="geometry" />
        </mxCell>
        <mxCell id="pvOWlsbIgjqSJZUFIhZs-155" value="62" style="ellipse;whiteSpace=wrap;html=1;aspect=fixed;" vertex="1" parent="1">
          <mxGeometry x="1250" y="980" width="40" height="40" as="geometry" />
        </mxCell>
        <mxCell id="pvOWlsbIgjqSJZUFIhZs-156" value="45" style="ellipse;whiteSpace=wrap;html=1;aspect=fixed;" vertex="1" parent="1">
          <mxGeometry x="1170" y="1060" width="40" height="40" as="geometry" />
        </mxCell>
        <mxCell id="pvOWlsbIgjqSJZUFIhZs-157" value="49" style="ellipse;whiteSpace=wrap;html=1;aspect=fixed;" vertex="1" parent="1">
          <mxGeometry x="1330" y="1060" width="40" height="40" as="geometry" />
        </mxCell>
        <mxCell id="pvOWlsbIgjqSJZUFIhZs-158" value="40" style="ellipse;whiteSpace=wrap;html=1;aspect=fixed;" vertex="1" parent="1">
          <mxGeometry x="850" y="1140" width="40" height="40" as="geometry" />
        </mxCell>
        <mxCell id="pvOWlsbIgjqSJZUFIhZs-159" value="92" style="ellipse;whiteSpace=wrap;html=1;aspect=fixed;" vertex="1" parent="1">
          <mxGeometry x="1010" y="1140" width="40" height="40" as="geometry" />
        </mxCell>
        <mxCell id="pvOWlsbIgjqSJZUFIhZs-161" style="rounded=0;orthogonalLoop=1;jettySize=auto;html=1;entryX=0.5;entryY=0;entryDx=0;entryDy=0;" edge="1" parent="1" source="pvOWlsbIgjqSJZUFIhZs-163" target="pvOWlsbIgjqSJZUFIhZs-166">
          <mxGeometry relative="1" as="geometry">
            <mxPoint x="1050" y="1286" as="targetPoint" />
          </mxGeometry>
        </mxCell>
        <mxCell id="pvOWlsbIgjqSJZUFIhZs-162" style="edgeStyle=none;rounded=0;orthogonalLoop=1;jettySize=auto;html=1;entryX=0.5;entryY=0;entryDx=0;entryDy=0;" edge="1" parent="1" source="pvOWlsbIgjqSJZUFIhZs-163" target="pvOWlsbIgjqSJZUFIhZs-173">
          <mxGeometry relative="1" as="geometry" />
        </mxCell>
        <mxCell id="pvOWlsbIgjqSJZUFIhZs-163" value="82" style="ellipse;whiteSpace=wrap;html=1;aspect=fixed;" vertex="1" parent="1">
          <mxGeometry x="1140" y="1200" width="40" height="40" as="geometry" />
        </mxCell>
        <mxCell id="pvOWlsbIgjqSJZUFIhZs-164" style="edgeStyle=none;rounded=0;orthogonalLoop=1;jettySize=auto;html=1;entryX=0.5;entryY=0;entryDx=0;entryDy=0;" edge="1" parent="1" source="pvOWlsbIgjqSJZUFIhZs-166" target="pvOWlsbIgjqSJZUFIhZs-170">
          <mxGeometry relative="1" as="geometry" />
        </mxCell>
        <mxCell id="pvOWlsbIgjqSJZUFIhZs-165" style="edgeStyle=none;rounded=0;orthogonalLoop=1;jettySize=auto;html=1;exitX=0;exitY=0.5;exitDx=0;exitDy=0;entryX=0.5;entryY=0;entryDx=0;entryDy=0;" edge="1" parent="1" source="pvOWlsbIgjqSJZUFIhZs-166" target="pvOWlsbIgjqSJZUFIhZs-169">
          <mxGeometry relative="1" as="geometry" />
        </mxCell>
        <mxCell id="pvOWlsbIgjqSJZUFIhZs-166" value="81" style="ellipse;whiteSpace=wrap;html=1;aspect=fixed;fillColor=#FF0000;" vertex="1" parent="1">
          <mxGeometry x="1020" y="1280" width="40" height="40" as="geometry" />
        </mxCell>
        <mxCell id="pvOWlsbIgjqSJZUFIhZs-167" style="edgeStyle=none;rounded=0;orthogonalLoop=1;jettySize=auto;html=1;entryX=0.5;entryY=0;entryDx=0;entryDy=0;" edge="1" parent="1" source="pvOWlsbIgjqSJZUFIhZs-169" target="pvOWlsbIgjqSJZUFIhZs-177">
          <mxGeometry relative="1" as="geometry" />
        </mxCell>
        <mxCell id="pvOWlsbIgjqSJZUFIhZs-168" style="edgeStyle=none;rounded=0;orthogonalLoop=1;jettySize=auto;html=1;entryX=0.5;entryY=0;entryDx=0;entryDy=0;" edge="1" parent="1" source="pvOWlsbIgjqSJZUFIhZs-169" target="pvOWlsbIgjqSJZUFIhZs-178">
          <mxGeometry relative="1" as="geometry" />
        </mxCell>
        <mxCell id="pvOWlsbIgjqSJZUFIhZs-169" value="66" style="ellipse;whiteSpace=wrap;html=1;aspect=fixed;" vertex="1" parent="1">
          <mxGeometry x="940" y="1360" width="40" height="40" as="geometry" />
        </mxCell>
        <mxCell id="pvOWlsbIgjqSJZUFIhZs-226" style="edgeStyle=orthogonalEdgeStyle;curved=1;rounded=0;orthogonalLoop=1;jettySize=auto;html=1;entryX=1;entryY=0;entryDx=0;entryDy=0;dashed=1;startArrow=none;startFill=0;endArrow=classicThin;endFill=1;opacity=30;exitX=1;exitY=0.5;exitDx=0;exitDy=0;" edge="1" parent="1" source="pvOWlsbIgjqSJZUFIhZs-170" target="pvOWlsbIgjqSJZUFIhZs-166">
          <mxGeometry relative="1" as="geometry">
            <Array as="points">
              <mxPoint x="1160" y="1380" />
              <mxPoint x="1160" y="1286" />
            </Array>
          </mxGeometry>
        </mxCell>
        <mxCell id="pvOWlsbIgjqSJZUFIhZs-170" value="81" style="ellipse;whiteSpace=wrap;html=1;aspect=fixed;fillColor=#FF0000;" vertex="1" parent="1">
          <mxGeometry x="1100" y="1360" width="40" height="40" as="geometry" />
        </mxCell>
        <mxCell id="pvOWlsbIgjqSJZUFIhZs-171" style="edgeStyle=none;rounded=0;orthogonalLoop=1;jettySize=auto;html=1;entryX=0.5;entryY=0;entryDx=0;entryDy=0;" edge="1" parent="1" source="pvOWlsbIgjqSJZUFIhZs-173" target="pvOWlsbIgjqSJZUFIhZs-174">
          <mxGeometry relative="1" as="geometry" />
        </mxCell>
        <mxCell id="pvOWlsbIgjqSJZUFIhZs-172" style="edgeStyle=none;rounded=0;orthogonalLoop=1;jettySize=auto;html=1;exitX=1;exitY=0.5;exitDx=0;exitDy=0;entryX=0.5;entryY=0;entryDx=0;entryDy=0;" edge="1" parent="1" source="pvOWlsbIgjqSJZUFIhZs-173" target="pvOWlsbIgjqSJZUFIhZs-176">
          <mxGeometry relative="1" as="geometry" />
        </mxCell>
        <mxCell id="pvOWlsbIgjqSJZUFIhZs-173" value="62" style="ellipse;whiteSpace=wrap;html=1;aspect=fixed;" vertex="1" parent="1">
          <mxGeometry x="1260" y="1280" width="40" height="40" as="geometry" />
        </mxCell>
        <mxCell id="pvOWlsbIgjqSJZUFIhZs-174" value="45" style="ellipse;whiteSpace=wrap;html=1;aspect=fixed;" vertex="1" parent="1">
          <mxGeometry x="1180" y="1360" width="40" height="40" as="geometry" />
        </mxCell>
        <mxCell id="pvOWlsbIgjqSJZUFIhZs-176" value="49" style="ellipse;whiteSpace=wrap;html=1;aspect=fixed;" vertex="1" parent="1">
          <mxGeometry x="1340" y="1360" width="40" height="40" as="geometry" />
        </mxCell>
        <mxCell id="pvOWlsbIgjqSJZUFIhZs-177" value="40" style="ellipse;whiteSpace=wrap;html=1;aspect=fixed;" vertex="1" parent="1">
          <mxGeometry x="860" y="1440" width="40" height="40" as="geometry" />
        </mxCell>
        <mxCell id="pvOWlsbIgjqSJZUFIhZs-178" value="92" style="ellipse;whiteSpace=wrap;html=1;aspect=fixed;" vertex="1" parent="1">
          <mxGeometry x="1020" y="1440" width="40" height="40" as="geometry" />
        </mxCell>
        <mxCell id="pvOWlsbIgjqSJZUFIhZs-182" value="&lt;p style=&quot;line-height: 10%&quot;&gt;50&lt;/p&gt;" style="ellipse;whiteSpace=wrap;html=1;aspect=fixed;opacity=30;" vertex="1" parent="1">
          <mxGeometry x="1100" y="800" width="40" height="40" as="geometry" />
        </mxCell>
        <mxCell id="pvOWlsbIgjqSJZUFIhZs-227" style="rounded=0;orthogonalLoop=1;jettySize=auto;html=1;entryX=0.5;entryY=0;entryDx=0;entryDy=0;" edge="1" parent="1" source="pvOWlsbIgjqSJZUFIhZs-229" target="pvOWlsbIgjqSJZUFIhZs-232">
          <mxGeometry relative="1" as="geometry">
            <mxPoint x="1050" y="1636" as="targetPoint" />
          </mxGeometry>
        </mxCell>
        <mxCell id="pvOWlsbIgjqSJZUFIhZs-228" style="edgeStyle=none;rounded=0;orthogonalLoop=1;jettySize=auto;html=1;entryX=0.5;entryY=0;entryDx=0;entryDy=0;" edge="1" parent="1" source="pvOWlsbIgjqSJZUFIhZs-229" target="pvOWlsbIgjqSJZUFIhZs-240">
          <mxGeometry relative="1" as="geometry" />
        </mxCell>
        <mxCell id="pvOWlsbIgjqSJZUFIhZs-229" value="82" style="ellipse;whiteSpace=wrap;html=1;aspect=fixed;" vertex="1" parent="1">
          <mxGeometry x="1140" y="1550" width="40" height="40" as="geometry" />
        </mxCell>
        <mxCell id="pvOWlsbIgjqSJZUFIhZs-230" style="edgeStyle=none;rounded=0;orthogonalLoop=1;jettySize=auto;html=1;entryX=0.5;entryY=0;entryDx=0;entryDy=0;" edge="1" parent="1" source="pvOWlsbIgjqSJZUFIhZs-232" target="pvOWlsbIgjqSJZUFIhZs-237">
          <mxGeometry relative="1" as="geometry" />
        </mxCell>
        <mxCell id="pvOWlsbIgjqSJZUFIhZs-231" style="edgeStyle=none;rounded=0;orthogonalLoop=1;jettySize=auto;html=1;exitX=0;exitY=0.5;exitDx=0;exitDy=0;entryX=0.5;entryY=0;entryDx=0;entryDy=0;" edge="1" parent="1" source="pvOWlsbIgjqSJZUFIhZs-232" target="pvOWlsbIgjqSJZUFIhZs-235">
          <mxGeometry relative="1" as="geometry" />
        </mxCell>
        <mxCell id="pvOWlsbIgjqSJZUFIhZs-232" value="81" style="ellipse;whiteSpace=wrap;html=1;aspect=fixed;" vertex="1" parent="1">
          <mxGeometry x="1020" y="1630" width="40" height="40" as="geometry" />
        </mxCell>
        <mxCell id="pvOWlsbIgjqSJZUFIhZs-235" value="66" style="ellipse;whiteSpace=wrap;html=1;aspect=fixed;" vertex="1" parent="1">
          <mxGeometry x="940" y="1710" width="40" height="40" as="geometry" />
        </mxCell>
        <mxCell id="pvOWlsbIgjqSJZUFIhZs-237" value="50" style="ellipse;whiteSpace=wrap;html=1;aspect=fixed;fillColor=#FF0000;" vertex="1" parent="1">
          <mxGeometry x="1100" y="1710" width="40" height="40" as="geometry" />
        </mxCell>
        <mxCell id="pvOWlsbIgjqSJZUFIhZs-240" value="62" style="ellipse;whiteSpace=wrap;html=1;aspect=fixed;" vertex="1" parent="1">
          <mxGeometry x="1260" y="1630" width="40" height="40" as="geometry" />
        </mxCell>
        <mxCell id="pvOWlsbIgjqSJZUFIhZs-245" style="rounded=0;orthogonalLoop=1;jettySize=auto;html=1;entryX=0.5;entryY=0;entryDx=0;entryDy=0;" edge="1" parent="1" target="pvOWlsbIgjqSJZUFIhZs-250">
          <mxGeometry relative="1" as="geometry">
            <mxPoint x="1050" y="1876" as="targetPoint" />
            <mxPoint x="1142.1114561800016" y="1818.9442719099993" as="sourcePoint" />
          </mxGeometry>
        </mxCell>
        <mxCell id="pvOWlsbIgjqSJZUFIhZs-246" style="edgeStyle=none;rounded=0;orthogonalLoop=1;jettySize=auto;html=1;entryX=0.5;entryY=0;entryDx=0;entryDy=0;" edge="1" parent="1" target="pvOWlsbIgjqSJZUFIhZs-256">
          <mxGeometry relative="1" as="geometry">
            <mxPoint x="1177.8885438199984" y="1818.9442719099993" as="sourcePoint" />
          </mxGeometry>
        </mxCell>
        <mxCell id="pvOWlsbIgjqSJZUFIhZs-247" style="edgeStyle=none;rounded=0;orthogonalLoop=1;jettySize=auto;html=1;entryX=0.5;entryY=0;entryDx=0;entryDy=0;" edge="1" parent="1" source="pvOWlsbIgjqSJZUFIhZs-250" target="pvOWlsbIgjqSJZUFIhZs-253">
          <mxGeometry relative="1" as="geometry" />
        </mxCell>
        <mxCell id="pvOWlsbIgjqSJZUFIhZs-248" style="edgeStyle=none;rounded=0;orthogonalLoop=1;jettySize=auto;html=1;exitX=0;exitY=0.5;exitDx=0;exitDy=0;entryX=0.5;entryY=0;entryDx=0;entryDy=0;" edge="1" parent="1" source="pvOWlsbIgjqSJZUFIhZs-250" target="pvOWlsbIgjqSJZUFIhZs-252">
          <mxGeometry relative="1" as="geometry" />
        </mxCell>
        <mxCell id="pvOWlsbIgjqSJZUFIhZs-250" value="81" style="ellipse;whiteSpace=wrap;html=1;aspect=fixed;" vertex="1" parent="1">
          <mxGeometry x="1020" y="1870" width="40" height="40" as="geometry" />
        </mxCell>
        <mxCell id="pvOWlsbIgjqSJZUFIhZs-251" style="edgeStyle=none;rounded=0;orthogonalLoop=1;jettySize=auto;html=1;entryX=0.5;entryY=0;entryDx=0;entryDy=0;" edge="1" parent="1" source="pvOWlsbIgjqSJZUFIhZs-252" target="pvOWlsbIgjqSJZUFIhZs-259">
          <mxGeometry relative="1" as="geometry" />
        </mxCell>
        <mxCell id="pvOWlsbIgjqSJZUFIhZs-263" style="edgeStyle=none;rounded=0;orthogonalLoop=1;jettySize=auto;html=1;entryX=0.5;entryY=0;entryDx=0;entryDy=0;startArrow=none;startFill=0;endArrow=classicThin;endFill=1;" edge="1" parent="1" source="pvOWlsbIgjqSJZUFIhZs-252" target="pvOWlsbIgjqSJZUFIhZs-261">
          <mxGeometry relative="1" as="geometry" />
        </mxCell>
        <mxCell id="pvOWlsbIgjqSJZUFIhZs-252" value="66" style="ellipse;whiteSpace=wrap;html=1;aspect=fixed;" vertex="1" parent="1">
          <mxGeometry x="940" y="1950" width="40" height="40" as="geometry" />
        </mxCell>
        <mxCell id="pvOWlsbIgjqSJZUFIhZs-253" value="50" style="ellipse;whiteSpace=wrap;html=1;aspect=fixed;" vertex="1" parent="1">
          <mxGeometry x="1100" y="1950" width="40" height="40" as="geometry" />
        </mxCell>
        <mxCell id="pvOWlsbIgjqSJZUFIhZs-254" style="edgeStyle=none;rounded=0;orthogonalLoop=1;jettySize=auto;html=1;entryX=0.5;entryY=0;entryDx=0;entryDy=0;" edge="1" parent="1" source="pvOWlsbIgjqSJZUFIhZs-256" target="pvOWlsbIgjqSJZUFIhZs-257">
          <mxGeometry relative="1" as="geometry" />
        </mxCell>
        <mxCell id="pvOWlsbIgjqSJZUFIhZs-255" style="edgeStyle=none;rounded=0;orthogonalLoop=1;jettySize=auto;html=1;exitX=1;exitY=0.5;exitDx=0;exitDy=0;entryX=0.5;entryY=0;entryDx=0;entryDy=0;" edge="1" parent="1" source="pvOWlsbIgjqSJZUFIhZs-256" target="pvOWlsbIgjqSJZUFIhZs-258">
          <mxGeometry relative="1" as="geometry" />
        </mxCell>
        <mxCell id="pvOWlsbIgjqSJZUFIhZs-256" value="62" style="ellipse;whiteSpace=wrap;html=1;aspect=fixed;" vertex="1" parent="1">
          <mxGeometry x="1260" y="1870" width="40" height="40" as="geometry" />
        </mxCell>
        <mxCell id="pvOWlsbIgjqSJZUFIhZs-257" value="45" style="ellipse;whiteSpace=wrap;html=1;aspect=fixed;" vertex="1" parent="1">
          <mxGeometry x="1180" y="1950" width="40" height="40" as="geometry" />
        </mxCell>
        <mxCell id="pvOWlsbIgjqSJZUFIhZs-258" value="49" style="ellipse;whiteSpace=wrap;html=1;aspect=fixed;" vertex="1" parent="1">
          <mxGeometry x="1340" y="1950" width="40" height="40" as="geometry" />
        </mxCell>
        <mxCell id="pvOWlsbIgjqSJZUFIhZs-259" value="40" style="ellipse;whiteSpace=wrap;html=1;aspect=fixed;" vertex="1" parent="1">
          <mxGeometry x="860" y="2030" width="40" height="40" as="geometry" />
        </mxCell>
        <mxCell id="pvOWlsbIgjqSJZUFIhZs-260" value="82" style="ellipse;whiteSpace=wrap;html=1;aspect=fixed;" vertex="1" parent="1">
          <mxGeometry x="1140" y="1790" width="40" height="40" as="geometry" />
        </mxCell>
        <mxCell id="pvOWlsbIgjqSJZUFIhZs-261" value="92" style="ellipse;whiteSpace=wrap;html=1;aspect=fixed;fillColor=#FFFF00;" vertex="1" parent="1">
          <mxGeometry x="1010" y="2030" width="40" height="40" as="geometry" />
        </mxCell>
        <mxCell id="pvOWlsbIgjqSJZUFIhZs-267" style="edgeStyle=none;rounded=0;orthogonalLoop=1;jettySize=auto;html=1;entryX=0.5;entryY=0;entryDx=0;entryDy=0;" edge="1" parent="1" source="pvOWlsbIgjqSJZUFIhZs-270" target="pvOWlsbIgjqSJZUFIhZs-274">
          <mxGeometry relative="1" as="geometry" />
        </mxCell>
        <mxCell id="pvOWlsbIgjqSJZUFIhZs-268" style="edgeStyle=none;rounded=0;orthogonalLoop=1;jettySize=auto;html=1;exitX=0;exitY=0.5;exitDx=0;exitDy=0;entryX=0.5;entryY=0;entryDx=0;entryDy=0;" edge="1" parent="1" source="pvOWlsbIgjqSJZUFIhZs-270" target="pvOWlsbIgjqSJZUFIhZs-273">
          <mxGeometry relative="1" as="geometry" />
        </mxCell>
        <mxCell id="pvOWlsbIgjqSJZUFIhZs-270" value="82" style="ellipse;whiteSpace=wrap;html=1;aspect=fixed;" vertex="1" parent="1">
          <mxGeometry x="70" y="1920" width="40" height="40" as="geometry" />
        </mxCell>
        <mxCell id="pvOWlsbIgjqSJZUFIhZs-271" style="edgeStyle=none;rounded=0;orthogonalLoop=1;jettySize=auto;html=1;entryX=0.5;entryY=0;entryDx=0;entryDy=0;" edge="1" parent="1" source="pvOWlsbIgjqSJZUFIhZs-273" target="pvOWlsbIgjqSJZUFIhZs-280">
          <mxGeometry relative="1" as="geometry" />
        </mxCell>
        <mxCell id="pvOWlsbIgjqSJZUFIhZs-272" style="edgeStyle=none;rounded=0;orthogonalLoop=1;jettySize=auto;html=1;entryX=0.5;entryY=0;entryDx=0;entryDy=0;" edge="1" parent="1" source="pvOWlsbIgjqSJZUFIhZs-273" target="pvOWlsbIgjqSJZUFIhZs-281">
          <mxGeometry relative="1" as="geometry" />
        </mxCell>
        <mxCell id="pvOWlsbIgjqSJZUFIhZs-273" value="66" style="ellipse;whiteSpace=wrap;html=1;aspect=fixed;" vertex="1" parent="1">
          <mxGeometry x="-80" y="2000" width="40" height="40" as="geometry" />
        </mxCell>
        <mxCell id="pvOWlsbIgjqSJZUFIhZs-413" style="rounded=0;orthogonalLoop=1;jettySize=auto;html=1;entryX=0.5;entryY=0;entryDx=0;entryDy=0;startArrow=none;startFill=0;endArrow=classicThin;endFill=1;" edge="1" parent="1" source="pvOWlsbIgjqSJZUFIhZs-274" target="pvOWlsbIgjqSJZUFIhZs-302">
          <mxGeometry relative="1" as="geometry" />
        </mxCell>
        <mxCell id="pvOWlsbIgjqSJZUFIhZs-415" style="edgeStyle=none;rounded=0;orthogonalLoop=1;jettySize=auto;html=1;startArrow=none;startFill=0;endArrow=classicThin;endFill=1;entryX=0.5;entryY=0;entryDx=0;entryDy=0;" edge="1" parent="1" source="pvOWlsbIgjqSJZUFIhZs-274" target="pvOWlsbIgjqSJZUFIhZs-303">
          <mxGeometry relative="1" as="geometry">
            <mxPoint x="290" y="2080" as="targetPoint" />
          </mxGeometry>
        </mxCell>
        <mxCell id="pvOWlsbIgjqSJZUFIhZs-274" value="81" style="ellipse;whiteSpace=wrap;html=1;aspect=fixed;" vertex="1" parent="1">
          <mxGeometry x="190" y="2000" width="40" height="40" as="geometry" />
        </mxCell>
        <mxCell id="pvOWlsbIgjqSJZUFIhZs-280" value="40" style="ellipse;whiteSpace=wrap;html=1;aspect=fixed;" vertex="1" parent="1">
          <mxGeometry x="-160" y="2080" width="40" height="40" as="geometry" />
        </mxCell>
        <mxCell id="pvOWlsbIgjqSJZUFIhZs-281" value="60" style="ellipse;whiteSpace=wrap;html=1;aspect=fixed;" vertex="1" parent="1">
          <mxGeometry y="2080" width="40" height="40" as="geometry" />
        </mxCell>
        <mxCell id="pvOWlsbIgjqSJZUFIhZs-302" value="75" style="ellipse;whiteSpace=wrap;html=1;aspect=fixed;" vertex="1" parent="1">
          <mxGeometry x="120" y="2080" width="40" height="40" as="geometry" />
        </mxCell>
        <mxCell id="pvOWlsbIgjqSJZUFIhZs-303" value="92" style="ellipse;whiteSpace=wrap;html=1;aspect=fixed;fillColor=#FF0000;" vertex="1" parent="1">
          <mxGeometry x="260" y="2080" width="40" height="40" as="geometry" />
        </mxCell>
        <mxCell id="pvOWlsbIgjqSJZUFIhZs-309" style="edgeStyle=none;rounded=0;orthogonalLoop=1;jettySize=auto;html=1;entryX=0.5;entryY=0;entryDx=0;entryDy=0;" edge="1" parent="1" source="pvOWlsbIgjqSJZUFIhZs-311" target="pvOWlsbIgjqSJZUFIhZs-317">
          <mxGeometry relative="1" as="geometry" />
        </mxCell>
        <mxCell id="pvOWlsbIgjqSJZUFIhZs-310" style="edgeStyle=none;rounded=0;orthogonalLoop=1;jettySize=auto;html=1;exitX=0;exitY=0.5;exitDx=0;exitDy=0;entryX=0.5;entryY=0;entryDx=0;entryDy=0;" edge="1" parent="1" source="pvOWlsbIgjqSJZUFIhZs-311" target="pvOWlsbIgjqSJZUFIhZs-314">
          <mxGeometry relative="1" as="geometry" />
        </mxCell>
        <mxCell id="pvOWlsbIgjqSJZUFIhZs-311" value="82" style="ellipse;whiteSpace=wrap;html=1;aspect=fixed;" vertex="1" parent="1">
          <mxGeometry x="-440" y="1920" width="40" height="40" as="geometry" />
        </mxCell>
        <mxCell id="pvOWlsbIgjqSJZUFIhZs-312" style="edgeStyle=none;rounded=0;orthogonalLoop=1;jettySize=auto;html=1;entryX=0.5;entryY=0;entryDx=0;entryDy=0;" edge="1" parent="1" source="pvOWlsbIgjqSJZUFIhZs-314" target="pvOWlsbIgjqSJZUFIhZs-323">
          <mxGeometry relative="1" as="geometry" />
        </mxCell>
        <mxCell id="pvOWlsbIgjqSJZUFIhZs-313" style="edgeStyle=none;rounded=0;orthogonalLoop=1;jettySize=auto;html=1;entryX=0.5;entryY=0;entryDx=0;entryDy=0;" edge="1" parent="1" source="pvOWlsbIgjqSJZUFIhZs-314" target="pvOWlsbIgjqSJZUFIhZs-324">
          <mxGeometry relative="1" as="geometry" />
        </mxCell>
        <mxCell id="pvOWlsbIgjqSJZUFIhZs-314" value="66" style="ellipse;whiteSpace=wrap;html=1;aspect=fixed;" vertex="1" parent="1">
          <mxGeometry x="-590" y="2000" width="40" height="40" as="geometry" />
        </mxCell>
        <mxCell id="pvOWlsbIgjqSJZUFIhZs-420" style="edgeStyle=none;rounded=0;orthogonalLoop=1;jettySize=auto;html=1;entryX=0.5;entryY=0;entryDx=0;entryDy=0;startArrow=none;startFill=0;endArrow=classicThin;endFill=1;" edge="1" parent="1" source="pvOWlsbIgjqSJZUFIhZs-317" target="pvOWlsbIgjqSJZUFIhZs-325">
          <mxGeometry relative="1" as="geometry" />
        </mxCell>
        <mxCell id="pvOWlsbIgjqSJZUFIhZs-317" value="81" style="ellipse;whiteSpace=wrap;html=1;aspect=fixed;" vertex="1" parent="1">
          <mxGeometry x="-320" y="2000" width="40" height="40" as="geometry" />
        </mxCell>
        <mxCell id="pvOWlsbIgjqSJZUFIhZs-323" value="40" style="ellipse;whiteSpace=wrap;html=1;aspect=fixed;" vertex="1" parent="1">
          <mxGeometry x="-670" y="2080" width="40" height="40" as="geometry" />
        </mxCell>
        <mxCell id="pvOWlsbIgjqSJZUFIhZs-324" value="60" style="ellipse;whiteSpace=wrap;html=1;aspect=fixed;" vertex="1" parent="1">
          <mxGeometry x="-510" y="2080" width="40" height="40" as="geometry" />
        </mxCell>
        <mxCell id="pvOWlsbIgjqSJZUFIhZs-325" value="92" style="ellipse;whiteSpace=wrap;html=1;aspect=fixed;fillColor=#FF0000;" vertex="1" parent="1">
          <mxGeometry x="-390" y="2080" width="40" height="40" as="geometry" />
        </mxCell>
        <mxCell id="pvOWlsbIgjqSJZUFIhZs-330" style="edgeStyle=none;rounded=0;orthogonalLoop=1;jettySize=auto;html=1;entryX=0.5;entryY=0;entryDx=0;entryDy=0;" edge="1" parent="1" source="pvOWlsbIgjqSJZUFIhZs-332" target="pvOWlsbIgjqSJZUFIhZs-338">
          <mxGeometry relative="1" as="geometry" />
        </mxCell>
        <mxCell id="pvOWlsbIgjqSJZUFIhZs-331" style="edgeStyle=none;rounded=0;orthogonalLoop=1;jettySize=auto;html=1;exitX=0;exitY=0.5;exitDx=0;exitDy=0;entryX=0.5;entryY=0;entryDx=0;entryDy=0;" edge="1" parent="1" source="pvOWlsbIgjqSJZUFIhZs-332" target="pvOWlsbIgjqSJZUFIhZs-335">
          <mxGeometry relative="1" as="geometry" />
        </mxCell>
        <mxCell id="pvOWlsbIgjqSJZUFIhZs-332" value="81" style="ellipse;whiteSpace=wrap;html=1;aspect=fixed;" vertex="1" parent="1">
          <mxGeometry x="60" y="2160" width="40" height="40" as="geometry" />
        </mxCell>
        <mxCell id="pvOWlsbIgjqSJZUFIhZs-333" style="edgeStyle=none;rounded=0;orthogonalLoop=1;jettySize=auto;html=1;entryX=0.5;entryY=0;entryDx=0;entryDy=0;" edge="1" parent="1" source="pvOWlsbIgjqSJZUFIhZs-335" target="pvOWlsbIgjqSJZUFIhZs-344">
          <mxGeometry relative="1" as="geometry" />
        </mxCell>
        <mxCell id="pvOWlsbIgjqSJZUFIhZs-334" style="edgeStyle=none;rounded=0;orthogonalLoop=1;jettySize=auto;html=1;entryX=0.5;entryY=0;entryDx=0;entryDy=0;" edge="1" parent="1" source="pvOWlsbIgjqSJZUFIhZs-335" target="pvOWlsbIgjqSJZUFIhZs-345">
          <mxGeometry relative="1" as="geometry" />
        </mxCell>
        <mxCell id="pvOWlsbIgjqSJZUFIhZs-335" value="66" style="ellipse;whiteSpace=wrap;html=1;aspect=fixed;" vertex="1" parent="1">
          <mxGeometry x="-90" y="2240" width="40" height="40" as="geometry" />
        </mxCell>
        <mxCell id="pvOWlsbIgjqSJZUFIhZs-416" style="edgeStyle=none;rounded=0;orthogonalLoop=1;jettySize=auto;html=1;entryX=0.5;entryY=0;entryDx=0;entryDy=0;startArrow=none;startFill=0;endArrow=classicThin;endFill=1;" edge="1" parent="1" source="pvOWlsbIgjqSJZUFIhZs-338" target="pvOWlsbIgjqSJZUFIhZs-346">
          <mxGeometry relative="1" as="geometry" />
        </mxCell>
        <mxCell id="pvOWlsbIgjqSJZUFIhZs-417" style="edgeStyle=none;rounded=0;orthogonalLoop=1;jettySize=auto;html=1;entryX=0.5;entryY=0;entryDx=0;entryDy=0;startArrow=none;startFill=0;endArrow=classicThin;endFill=1;" edge="1" parent="1" source="pvOWlsbIgjqSJZUFIhZs-338" target="pvOWlsbIgjqSJZUFIhZs-347">
          <mxGeometry relative="1" as="geometry" />
        </mxCell>
        <mxCell id="pvOWlsbIgjqSJZUFIhZs-338" value="75" style="ellipse;whiteSpace=wrap;html=1;aspect=fixed;fillColor=#FF0000;" vertex="1" parent="1">
          <mxGeometry x="180" y="2240" width="40" height="40" as="geometry" />
        </mxCell>
        <mxCell id="pvOWlsbIgjqSJZUFIhZs-344" value="40" style="ellipse;whiteSpace=wrap;html=1;aspect=fixed;" vertex="1" parent="1">
          <mxGeometry x="-170" y="2320" width="40" height="40" as="geometry" />
        </mxCell>
        <mxCell id="pvOWlsbIgjqSJZUFIhZs-345" value="60" style="ellipse;whiteSpace=wrap;html=1;aspect=fixed;" vertex="1" parent="1">
          <mxGeometry x="-10" y="2320" width="40" height="40" as="geometry" />
        </mxCell>
        <mxCell id="pvOWlsbIgjqSJZUFIhZs-424" style="edgeStyle=orthogonalEdgeStyle;rounded=0;orthogonalLoop=1;jettySize=auto;html=1;entryX=0;entryY=0.25;entryDx=0;entryDy=0;entryPerimeter=0;dashed=1;startArrow=none;startFill=0;endArrow=classicThin;endFill=1;opacity=30;curved=1;" edge="1" parent="1" source="pvOWlsbIgjqSJZUFIhZs-346" target="pvOWlsbIgjqSJZUFIhZs-338">
          <mxGeometry relative="1" as="geometry">
            <Array as="points">
              <mxPoint x="110" y="2250" />
            </Array>
          </mxGeometry>
        </mxCell>
        <mxCell id="pvOWlsbIgjqSJZUFIhZs-346" value="75" style="ellipse;whiteSpace=wrap;html=1;aspect=fixed;fillColor=#FFFF00;" vertex="1" parent="1">
          <mxGeometry x="110" y="2320" width="40" height="40" as="geometry" />
        </mxCell>
        <mxCell id="pvOWlsbIgjqSJZUFIhZs-347" value="92" style="ellipse;whiteSpace=wrap;html=1;aspect=fixed;" vertex="1" parent="1">
          <mxGeometry x="250" y="2320" width="40" height="40" as="geometry" />
        </mxCell>
        <mxCell id="pvOWlsbIgjqSJZUFIhZs-372" style="edgeStyle=none;rounded=0;orthogonalLoop=1;jettySize=auto;html=1;entryX=0.5;entryY=0;entryDx=0;entryDy=0;" edge="1" parent="1" source="pvOWlsbIgjqSJZUFIhZs-374" target="pvOWlsbIgjqSJZUFIhZs-379">
          <mxGeometry relative="1" as="geometry" />
        </mxCell>
        <mxCell id="pvOWlsbIgjqSJZUFIhZs-373" style="edgeStyle=none;rounded=0;orthogonalLoop=1;jettySize=auto;html=1;exitX=0;exitY=0.5;exitDx=0;exitDy=0;entryX=0.5;entryY=0;entryDx=0;entryDy=0;" edge="1" parent="1" source="pvOWlsbIgjqSJZUFIhZs-374" target="pvOWlsbIgjqSJZUFIhZs-377">
          <mxGeometry relative="1" as="geometry" />
        </mxCell>
        <mxCell id="pvOWlsbIgjqSJZUFIhZs-374" value="81" style="ellipse;whiteSpace=wrap;html=1;aspect=fixed;" vertex="1" parent="1">
          <mxGeometry x="-440" y="2160" width="40" height="40" as="geometry" />
        </mxCell>
        <mxCell id="pvOWlsbIgjqSJZUFIhZs-375" style="edgeStyle=none;rounded=0;orthogonalLoop=1;jettySize=auto;html=1;entryX=0.5;entryY=0;entryDx=0;entryDy=0;" edge="1" parent="1" source="pvOWlsbIgjqSJZUFIhZs-377" target="pvOWlsbIgjqSJZUFIhZs-385">
          <mxGeometry relative="1" as="geometry" />
        </mxCell>
        <mxCell id="pvOWlsbIgjqSJZUFIhZs-376" style="edgeStyle=none;rounded=0;orthogonalLoop=1;jettySize=auto;html=1;entryX=0.5;entryY=0;entryDx=0;entryDy=0;" edge="1" parent="1" source="pvOWlsbIgjqSJZUFIhZs-377" target="pvOWlsbIgjqSJZUFIhZs-386">
          <mxGeometry relative="1" as="geometry" />
        </mxCell>
        <mxCell id="pvOWlsbIgjqSJZUFIhZs-377" value="66" style="ellipse;whiteSpace=wrap;html=1;aspect=fixed;" vertex="1" parent="1">
          <mxGeometry x="-590" y="2240" width="40" height="40" as="geometry" />
        </mxCell>
        <mxCell id="pvOWlsbIgjqSJZUFIhZs-421" style="edgeStyle=none;rounded=0;orthogonalLoop=1;jettySize=auto;html=1;entryX=0.5;entryY=0;entryDx=0;entryDy=0;startArrow=none;startFill=0;endArrow=classicThin;endFill=1;" edge="1" parent="1" source="pvOWlsbIgjqSJZUFIhZs-379" target="pvOWlsbIgjqSJZUFIhZs-387">
          <mxGeometry relative="1" as="geometry" />
        </mxCell>
        <mxCell id="pvOWlsbIgjqSJZUFIhZs-379" value="60" style="ellipse;whiteSpace=wrap;html=1;aspect=fixed;fillColor=#FF0000;" vertex="1" parent="1">
          <mxGeometry x="-320" y="2240" width="40" height="40" as="geometry" />
        </mxCell>
        <mxCell id="pvOWlsbIgjqSJZUFIhZs-385" value="40" style="ellipse;whiteSpace=wrap;html=1;aspect=fixed;" vertex="1" parent="1">
          <mxGeometry x="-670" y="2320" width="40" height="40" as="geometry" />
        </mxCell>
        <mxCell id="pvOWlsbIgjqSJZUFIhZs-423" style="edgeStyle=none;rounded=0;orthogonalLoop=1;jettySize=auto;html=1;entryX=0;entryY=0.5;entryDx=0;entryDy=0;startArrow=none;startFill=0;endArrow=classicThin;endFill=1;dashed=1;opacity=30;" edge="1" parent="1" source="pvOWlsbIgjqSJZUFIhZs-386" target="pvOWlsbIgjqSJZUFIhZs-379">
          <mxGeometry relative="1" as="geometry" />
        </mxCell>
        <mxCell id="pvOWlsbIgjqSJZUFIhZs-386" value="60" style="ellipse;whiteSpace=wrap;html=1;aspect=fixed;fillColor=#FFFF00;" vertex="1" parent="1">
          <mxGeometry x="-510" y="2320" width="40" height="40" as="geometry" />
        </mxCell>
        <mxCell id="pvOWlsbIgjqSJZUFIhZs-387" value="92" style="ellipse;whiteSpace=wrap;html=1;aspect=fixed;" vertex="1" parent="1">
          <mxGeometry x="-390" y="2320" width="40" height="40" as="geometry" />
        </mxCell>
        <mxCell id="pvOWlsbIgjqSJZUFIhZs-388" value="push_heap" style="text;html=1;align=center;verticalAlign=middle;resizable=0;points=[];autosize=1;strokeColor=none;fillColor=none;" vertex="1" parent="1">
          <mxGeometry x="1150" y="1720" width="70" height="20" as="geometry" />
        </mxCell>
        <mxCell id="pvOWlsbIgjqSJZUFIhZs-389" style="edgeStyle=none;rounded=0;orthogonalLoop=1;jettySize=auto;html=1;entryX=0.5;entryY=0;entryDx=0;entryDy=0;" edge="1" parent="1" source="pvOWlsbIgjqSJZUFIhZs-391" target="pvOWlsbIgjqSJZUFIhZs-396">
          <mxGeometry relative="1" as="geometry" />
        </mxCell>
        <mxCell id="pvOWlsbIgjqSJZUFIhZs-390" style="edgeStyle=none;rounded=0;orthogonalLoop=1;jettySize=auto;html=1;exitX=0;exitY=0.5;exitDx=0;exitDy=0;entryX=0.5;entryY=0;entryDx=0;entryDy=0;" edge="1" parent="1" source="pvOWlsbIgjqSJZUFIhZs-391" target="pvOWlsbIgjqSJZUFIhZs-394">
          <mxGeometry relative="1" as="geometry" />
        </mxCell>
        <mxCell id="pvOWlsbIgjqSJZUFIhZs-391" value="81" style="ellipse;whiteSpace=wrap;html=1;aspect=fixed;" vertex="1" parent="1">
          <mxGeometry x="-440" y="2420" width="40" height="40" as="geometry" />
        </mxCell>
        <mxCell id="pvOWlsbIgjqSJZUFIhZs-392" style="edgeStyle=none;rounded=0;orthogonalLoop=1;jettySize=auto;html=1;entryX=0.5;entryY=0;entryDx=0;entryDy=0;" edge="1" parent="1" source="pvOWlsbIgjqSJZUFIhZs-394" target="pvOWlsbIgjqSJZUFIhZs-397">
          <mxGeometry relative="1" as="geometry" />
        </mxCell>
        <mxCell id="pvOWlsbIgjqSJZUFIhZs-393" style="edgeStyle=none;rounded=0;orthogonalLoop=1;jettySize=auto;html=1;entryX=0.5;entryY=0;entryDx=0;entryDy=0;" edge="1" parent="1" source="pvOWlsbIgjqSJZUFIhZs-394" target="pvOWlsbIgjqSJZUFIhZs-398">
          <mxGeometry relative="1" as="geometry" />
        </mxCell>
        <mxCell id="pvOWlsbIgjqSJZUFIhZs-394" value="66" style="ellipse;whiteSpace=wrap;html=1;aspect=fixed;" vertex="1" parent="1">
          <mxGeometry x="-590" y="2500" width="40" height="40" as="geometry" />
        </mxCell>
        <mxCell id="pvOWlsbIgjqSJZUFIhZs-422" style="edgeStyle=none;rounded=0;orthogonalLoop=1;jettySize=auto;html=1;entryX=0.5;entryY=0;entryDx=0;entryDy=0;startArrow=none;startFill=0;endArrow=classicThin;endFill=1;" edge="1" parent="1" source="pvOWlsbIgjqSJZUFIhZs-396" target="pvOWlsbIgjqSJZUFIhZs-399">
          <mxGeometry relative="1" as="geometry" />
        </mxCell>
        <mxCell id="pvOWlsbIgjqSJZUFIhZs-396" value="60" style="ellipse;whiteSpace=wrap;html=1;aspect=fixed;" vertex="1" parent="1">
          <mxGeometry x="-320" y="2500" width="40" height="40" as="geometry" />
        </mxCell>
        <mxCell id="pvOWlsbIgjqSJZUFIhZs-397" value="40" style="ellipse;whiteSpace=wrap;html=1;aspect=fixed;" vertex="1" parent="1">
          <mxGeometry x="-670" y="2580" width="40" height="40" as="geometry" />
        </mxCell>
        <mxCell id="pvOWlsbIgjqSJZUFIhZs-426" style="edgeStyle=orthogonalEdgeStyle;curved=1;rounded=0;orthogonalLoop=1;jettySize=auto;html=1;dashed=1;startArrow=none;startFill=0;endArrow=classicThin;endFill=1;opacity=30;entryX=0.125;entryY=0.5;entryDx=0;entryDy=0;entryPerimeter=0;exitX=0.875;exitY=0.5;exitDx=0;exitDy=0;exitPerimeter=0;" edge="1" parent="1" source="pvOWlsbIgjqSJZUFIhZs-398" target="pvOWlsbIgjqSJZUFIhZs-398">
          <mxGeometry relative="1" as="geometry">
            <mxPoint x="-515" y="2600" as="targetPoint" />
            <mxPoint x="-465" y="2600" as="sourcePoint" />
            <Array as="points">
              <mxPoint x="-465" y="2600" />
              <mxPoint x="-465" y="2660" />
              <mxPoint x="-515" y="2660" />
              <mxPoint x="-515" y="2600" />
            </Array>
          </mxGeometry>
        </mxCell>
        <mxCell id="pvOWlsbIgjqSJZUFIhZs-398" value="50" style="ellipse;whiteSpace=wrap;html=1;aspect=fixed;fillColor=#FFFF00;" vertex="1" parent="1">
          <mxGeometry x="-510" y="2580" width="40" height="40" as="geometry" />
        </mxCell>
        <mxCell id="pvOWlsbIgjqSJZUFIhZs-399" value="92" style="ellipse;whiteSpace=wrap;html=1;aspect=fixed;" vertex="1" parent="1">
          <mxGeometry x="-390" y="2580" width="40" height="40" as="geometry" />
        </mxCell>
        <mxCell id="pvOWlsbIgjqSJZUFIhZs-400" style="edgeStyle=none;rounded=0;orthogonalLoop=1;jettySize=auto;html=1;entryX=0.5;entryY=0;entryDx=0;entryDy=0;" edge="1" parent="1" source="pvOWlsbIgjqSJZUFIhZs-402" target="pvOWlsbIgjqSJZUFIhZs-408">
          <mxGeometry relative="1" as="geometry" />
        </mxCell>
        <mxCell id="pvOWlsbIgjqSJZUFIhZs-401" style="edgeStyle=none;rounded=0;orthogonalLoop=1;jettySize=auto;html=1;exitX=0;exitY=0.5;exitDx=0;exitDy=0;entryX=0.5;entryY=0;entryDx=0;entryDy=0;" edge="1" parent="1" source="pvOWlsbIgjqSJZUFIhZs-402" target="pvOWlsbIgjqSJZUFIhZs-405">
          <mxGeometry relative="1" as="geometry" />
        </mxCell>
        <mxCell id="pvOWlsbIgjqSJZUFIhZs-402" value="81" style="ellipse;whiteSpace=wrap;html=1;aspect=fixed;" vertex="1" parent="1">
          <mxGeometry x="80" y="2420" width="40" height="40" as="geometry" />
        </mxCell>
        <mxCell id="pvOWlsbIgjqSJZUFIhZs-403" style="edgeStyle=none;rounded=0;orthogonalLoop=1;jettySize=auto;html=1;entryX=0.5;entryY=0;entryDx=0;entryDy=0;" edge="1" parent="1" source="pvOWlsbIgjqSJZUFIhZs-405" target="pvOWlsbIgjqSJZUFIhZs-409">
          <mxGeometry relative="1" as="geometry" />
        </mxCell>
        <mxCell id="pvOWlsbIgjqSJZUFIhZs-404" style="edgeStyle=none;rounded=0;orthogonalLoop=1;jettySize=auto;html=1;entryX=0.5;entryY=0;entryDx=0;entryDy=0;" edge="1" parent="1" source="pvOWlsbIgjqSJZUFIhZs-405" target="pvOWlsbIgjqSJZUFIhZs-410">
          <mxGeometry relative="1" as="geometry" />
        </mxCell>
        <mxCell id="pvOWlsbIgjqSJZUFIhZs-405" value="66" style="ellipse;whiteSpace=wrap;html=1;aspect=fixed;" vertex="1" parent="1">
          <mxGeometry x="-70" y="2500" width="40" height="40" as="geometry" />
        </mxCell>
        <mxCell id="pvOWlsbIgjqSJZUFIhZs-418" style="edgeStyle=none;rounded=0;orthogonalLoop=1;jettySize=auto;html=1;entryX=0.5;entryY=0;entryDx=0;entryDy=0;startArrow=none;startFill=0;endArrow=classicThin;endFill=1;" edge="1" parent="1" source="pvOWlsbIgjqSJZUFIhZs-408" target="pvOWlsbIgjqSJZUFIhZs-411">
          <mxGeometry relative="1" as="geometry" />
        </mxCell>
        <mxCell id="pvOWlsbIgjqSJZUFIhZs-419" style="edgeStyle=none;rounded=0;orthogonalLoop=1;jettySize=auto;html=1;entryX=0.5;entryY=0;entryDx=0;entryDy=0;startArrow=none;startFill=0;endArrow=classicThin;endFill=1;" edge="1" parent="1" source="pvOWlsbIgjqSJZUFIhZs-408" target="pvOWlsbIgjqSJZUFIhZs-412">
          <mxGeometry relative="1" as="geometry" />
        </mxCell>
        <mxCell id="pvOWlsbIgjqSJZUFIhZs-408" value="75" style="ellipse;whiteSpace=wrap;html=1;aspect=fixed;" vertex="1" parent="1">
          <mxGeometry x="200" y="2500" width="40" height="40" as="geometry" />
        </mxCell>
        <mxCell id="pvOWlsbIgjqSJZUFIhZs-409" value="40" style="ellipse;whiteSpace=wrap;html=1;aspect=fixed;" vertex="1" parent="1">
          <mxGeometry x="-150" y="2580" width="40" height="40" as="geometry" />
        </mxCell>
        <mxCell id="pvOWlsbIgjqSJZUFIhZs-410" value="60" style="ellipse;whiteSpace=wrap;html=1;aspect=fixed;" vertex="1" parent="1">
          <mxGeometry x="10" y="2580" width="40" height="40" as="geometry" />
        </mxCell>
        <mxCell id="pvOWlsbIgjqSJZUFIhZs-425" style="edgeStyle=orthogonalEdgeStyle;curved=1;rounded=0;orthogonalLoop=1;jettySize=auto;html=1;dashed=1;startArrow=none;startFill=0;endArrow=classicThin;endFill=1;opacity=30;entryX=0;entryY=0.5;entryDx=0;entryDy=0;exitX=1;exitY=0.5;exitDx=0;exitDy=0;" edge="1" parent="1" source="pvOWlsbIgjqSJZUFIhZs-411" target="pvOWlsbIgjqSJZUFIhZs-411">
          <mxGeometry relative="1" as="geometry">
            <mxPoint x="120" y="2600" as="targetPoint" />
            <mxPoint x="180" y="2600" as="sourcePoint" />
            <Array as="points">
              <mxPoint x="180" y="2600" />
              <mxPoint x="180" y="2670" />
              <mxPoint x="110" y="2670" />
              <mxPoint x="110" y="2600" />
            </Array>
          </mxGeometry>
        </mxCell>
        <mxCell id="pvOWlsbIgjqSJZUFIhZs-411" value="50" style="ellipse;whiteSpace=wrap;html=1;aspect=fixed;fillColor=#FFFF00;" vertex="1" parent="1">
          <mxGeometry x="130" y="2580" width="40" height="40" as="geometry" />
        </mxCell>
        <mxCell id="pvOWlsbIgjqSJZUFIhZs-412" value="92" style="ellipse;whiteSpace=wrap;html=1;aspect=fixed;" vertex="1" parent="1">
          <mxGeometry x="270" y="2580" width="40" height="40" as="geometry" />
        </mxCell>
      </root>
    </mxGraphModel>
  </diagram>
</mxfile>
